<svg xmlns="http://www.w3.org/2000/svg" width="16" height="16" viewBox="0 0 16 16">
  <title>2</title>
  <path d="M5.1,18H18.9c.6,0,1.1.4,1.1.8v.4c0,.4-.5.8-1.1.8H5.1c-.6,0-1.1-.4-1.1-.8v-.4C4,18.4,4.5,18,5.1,18Z" transform="translate(-4 -4)"/>
  <path d="M17.5,11.5s-1.5,2.2-1.5,3a1.5,1.5,0,0,0,3,0C19,13.7,17.5,11.5,17.5,11.5Zm-.7-2.4L11.9,4.2,11.4,4l-.6.2L8.9,6.1l-2-2a.4.4,0,0,0-.5,0l-.5.6a.4.4,0,0,0,0,.5l2,2L5.7,9.4a2.2,2.2,0,0,0-.1,3.1h.1l2.7,2.7A2.2,2.2,0,0,0,10,16a2.3,2.3,0,0,0,1.6-.7l5.2-5.2a.7.7,0,0,0,.1-1h-.1Zm-2.7,1.7H6.5l.2-.3.3-.3L8.9,8.3l1.4,1.3a.8.8,0,0,0,1.1,0,.7.7,0,0,0,.1-1h-.1L10,7.2l1.4-1.4,3.8,3.8Z" transform="translate(-4 -4)"/>
</svg>
