<svg xmlns="http://www.w3.org/2000/svg" viewBox="0 0 16 16">
  <path d="M4.1,2h7.9c.6,0,1.1.4,1.1.8v.4c0,.4-.5.8-1.1.8H4.1C3.5,4,3,3.6,3,3.2V2.8C3,2.4,3.5,2,4.1,2Z"/>
  <path d="M1.1,6H14.9c.6,0,1.1.4,1.1.8v.4c0,.4-.5.8-1.1.8H1.1C.5,8,0,7.6,0,7.2V6.8C0,6.4.5,6,1.1,6Z"/>
  <path d="M4.1,10h7.9c.6,0,1.1.4,1.1.8v.4c0,.4-.5.8-1.1.8H4.1c-.6,0-1.1-.4-1.1-.8v-.4C3,10.4,3.5,10,4.1,10Z"/>
  <path d="M1.1,14H14.9c.6,0,1.1.4,1.1.8v.4c0,.4-.5.8-1.1.8H1.1C.5,16,0,15.6,0,15.2v-.4C0,14.4.5,14,1.1,14Z"/>
</svg>
