<svg  xmlns="http://www.w3.org/2000/svg" viewBox="0 0 16 16">
  <path d="M1.1,14H14.9c.6,0,1.1.4,1.1.8v.4c0,.4-.5.8-1.1.8H1.1C.5,16,0,15.6,0,15.2v-.4C0,14.4.5,14,1.1,14Z"/>
  <path d="M13.5,7.5S12,9.7,12,10.5A1.5,1.5,0,0,0,13.5,12,1.5,1.5,0,0,0,15,10.5C15,9.7,13.5,7.5,13.5,7.5Zm-.7-2.4L7.9.2,7.4,0,6.8.2,4.9,2.1l-2-2a.4.4,0,0,0-.5,0L1.9.7a.4.4,0,0,0,0,.5l2,2L1.7,5.4a2.2,2.2,0,0,0,0,3.2l2.7,2.7A2.2,2.2,0,0,0,6,12a2.3,2.3,0,0,0,1.6-.7l5.2-5.2a.7.7,0,0,0,0-1.1ZM10.1,6.8H2.5l.2-.3L3,6.2,4.9,4.3,6.3,5.6a.8.8,0,0,0,1.1,0,.7.7,0,0,0,0-1.1h0L6,3.2,7.4,1.8l3.8,3.8L10.1,6.8Z" />
</svg>
