<?xml version="1.0" encoding="utf-8"?>
<svg version="1.0" xmlns="http://www.w3.org/2000/svg" xmlns:xlink="http://www.w3.org/1999/xlink" x="0px" y="0px"
	 viewBox="0 0 16 16" enable-background="new 0 0 16 16" xml:space="preserve">
<path d="M2,2h1v5c0,2.8,2.2,5,5,5s5-2.2,5-5V2h1c0.3,0,0.5-0.2,0.5-0.5v-1C14.5,0.2,14.3,0,14,0H9.5C9.2,0,9,0.2,9,0.5v1
	C9,1.8,9.2,2,9.5,2h1v5c0,1.4-1.1,2.5-2.5,2.5S5.5,8.4,5.5,7V2h1C6.8,2,7,1.8,7,1.5v-1C7,0.2,6.8,0,6.5,0H2C1.7,0,1.5,0.2,1.5,0.5v1
	C1.5,1.8,1.7,2,2,2z"/>
<path d="M1.1,14h13.9c0.6,0,1.1,0.4,1.1,0.8v0.4c0,0.4-0.5,0.8-1.1,0.8H1.1C0.5,16,0,15.6,0,15.2v-0.4C0,14.4,0.5,14,1.1,14z"/>
</svg>
