<svg xmlns="http://www.w3.org/2000/svg" viewBox="0 0 16 16">
  <path d="M15.6,6.9H9.4l-3.1-1a1.6,1.6,0,0,1,.5-3H9.1a1.8,1.8,0,0,1,1.6,1,.6.6,0,0,0,.8.3L13,3.3a.6.6,0,0,0,.3-.8h0A4.6,4.6,0,0,0,9.1,0H6.7A4.4,4.4,0,0,0,2.3,4.4q0,.2,0,.4a4.2,4.2,0,0,0,.8,2H.4a.6.6,0,0,0-.6.6V8.6a.6.6,0,0,0,.6.6H15.6a.6.6,0,0,0,.6-.6V7.4A.6.6,0,0,0,15.6,6.9Zm-5.4,3.4a1.5,1.5,0,0,1,.7,1.3,1.6,1.6,0,0,1-1.6,1.6H6.9a1.8,1.8,0,0,1-1.6-1,.6.6,0,0,0-.8-.3L3,12.7a.6.6,0,0,0-.3.8h0A4.6,4.6,0,0,0,6.9,16H9.3a4.4,4.4,0,0,0,4.4-4.4q0-.2,0-.4a4.1,4.1,0,0,0-.2-.9Z"/>
</svg>
