<svg xmlns="http://www.w3.org/2000/svg" width="9" height="11" viewBox="0 0 9 11">
    <path d="M7.24 5.185c.83-.44 1.32-1.32 1.32-2.324C8.56 1.663 7.924.71 6.872.318 6.285.073 5.674 0 4.916 0H.39A.402.402 0 0 0 0 .391v.832c0 .195.171.391.391.391h.807v7.777H.391A.386.386 0 0 0 0 9.783v.782c0 .22.171.392.391.392h4.77c.586 0 1.1-.025 1.638-.172A3.074 3.074 0 0 0 9 7.802c0-1.297-.66-2.25-1.76-2.617zM3.276 1.688h1.639c.391 0 .685.048.93.17.39.22.61.661.61 1.2 0 .88-.513 1.393-1.296 1.393H3.277V1.688zm2.74 7.483c-.245.098-.539.122-.759.122h-1.98V6.114h2.054c.978 0 1.54.636 1.54 1.54 0 .71-.342 1.297-.856 1.517z"/>
</svg>
